<svg xmlns="http://www.w3.org/2000/svg" width="90" height="74" x="0" y="0" viewBox="0 0 90 74"><g id="Layer_3"><g><rect width="62" height="46" x="7" y="7" fill="#FFF" opacity=".25"/><path fill="#FFF" d="M0,0v60h76V0H0z M72,56H4V4h68V56z"/><polygon fill="#FFF" points="79 7 79 63 7 63 7 67 83 67 83 7" opacity=".49"/><polygon fill="#FFF" points="86 14 86 70 14 70 14 74 90 74 90 14" opacity=".25"/><circle cx="18.5" cy="18.5" r="7.5" fill="#FFF" opacity=".3"/><path fill="#FFF" d="M7,53v-5l17-17l22,22H7z M35,37l16,16h18V31L55,17L35,37z" opacity=".65"/></g></g></svg>