<svg xmlns="http://www.w3.org/2000/svg" xmlns:xlink="http://www.w3.org/1999/xlink" id="Layer_1" width="305" height="200" x="0" style="enable-background:new 0 0 305 200" y="0" version="1.1" viewBox="0 0 305 200" xml:space="preserve"><style type="text/css">.st0,.st1{opacity:.1;fill:#33c5a0;stroke:#33c5a0;stroke-miterlimit:10}.st1{fill:#1397b9;stroke:#1397b9}.st2{opacity:8.000000e-02}.st3{fill:#939aa6}.st4{fill:#7d8695}.st5{fill:#5d687a}.st6{fill:#1397b9}.st7{fill:#5ab6ce}.st8{fill:#5f697a}.st9{fill:#1e355b}.st10{fill:#a5aebd}.st11{fill:#8e9aad}.st12{fill:#bbc2ce}.st13{fill:#78869d}.st14{fill:#85dcc6}.st15{fill:#66d3b8}.st16{opacity:.4}.st17{fill:#3e7ba1}.st18{opacity:.2}.st19{opacity:.75}.st20{opacity:.55}.st21{fill:#f4d0a9}.st22{opacity:.6;fill:url(#SVGID_1_)}.st23{fill:#9aa4b5}.st24{fill:url(#SVGID_2_)}.st25{fill:#fff}.st26{fill:#63c593}.st27{fill:#293f63}.st28{fill:#33c5a0}.st29{fill:#70d6bc}.st30{fill:none;stroke:#49b282;stroke-width:.5;stroke-miterlimit:10}.st31{fill:#6ed6bc}.st32{fill:#61728c}.st33,.st34{fill:#4b5d7c}.st34{opacity:.6}.st35{fill:#b9834a}</style><path d="M38.2,91.4c19,59.8-20.6,81.8,7.9,104.1c22.1,17.3,65.2-21,106.4-24.7c27.3-2.5,57.8,26.8,87.5,26.8	c36.8,0,62.3-31.1,63.7-71.4c2.7-79.8-91.5-60.5-139.8-73.3C109.5,38.6,87-16.3,47.1,4.7C29.8,13.8,21.6,39.2,38.2,91.4z" class="st0"/><path d="M263.7,102.1c-36.3-59.2-13.8-77.8-42.3-89.4c-28.8-11.8-44.2,37.8-81.2,43.4c-25.9,3.9-52.3-22.9-89.6-16	C16,46.6-6.7,84.5,1.8,121.7c16.3,71.2,90.4,33.7,137.8,34c53.3,0.2,89.1,55.8,127.8,24.5C282,168.3,289.8,144.6,263.7,102.1z" class="st1"/><ellipse cx="151.2" cy="184.9" class="st2" rx="49.6" ry="3.2"/><g><g><rect width="3" height="23.3" x="144.4" y="149.2" class="st3"/><path d="M151.6,174.6h-11.4v0c0-1.2,0.9-2.1,2.1-2.1h7.2C150.6,172.5,151.6,173.4,151.6,174.6L151.6,174.6z" class="st4"/><path d="M163.1,177.5h-34.6v0c0-1.6,1.3-2.9,2.9-2.9h28.7C161.8,174.5,163.1,175.8,163.1,177.5L163.1,177.5z" class="st4"/><ellipse cx="129.4" cy="180.1" class="st5" rx="2.8" ry="2.4"/><ellipse cx="162.3" cy="180.1" class="st5" rx="2.8" ry="2.4"/></g></g><path d="M160.7,149.3h-29.6c-1.1,0-2.1-0.9-2.1-2.1v0c0-1.1,0.9-2.1,2.1-2.1h29.6c1.1,0,2.1,0.9,2.1,2.1v0	C162.7,148.3,161.8,149.3,160.7,149.3z" class="st6"/><path d="M155.7,126.3h-21.6c-2.8,0-5.2-2.1-5.5-4.9l-2.5-21.7c-0.4-3.3,2.2-6.2,5.5-6.2h26.6c3.3,0,5.9,2.9,5.5,6.2	l-2.5,21.7C160.9,124.2,158.5,126.3,155.7,126.3z" class="st7"/><path d="M161.9,138.2h-32.4c-2.4,0-4.4,2-4.4,4.4v0c0,2.4,2,4.4,4.4,4.4h32.4c2.4,0,4.4-2,4.4-4.4v0	C166.2,140.2,164.3,138.2,161.9,138.2z" class="st7"/><rect width="25.5" height="12.2" x="132.7" y="124.1" class="st8"/><path d="M143.5,96.6l-5.9,1.2c-2.3,0.5-4.3,2.1-5.1,4.3l-6.7,14.2l8.5,6.2l25.4,2.9l4.6-16.1L143.5,96.6z" class="st8"/><path d="M172.6,118.8L154.3,103c-1.1-1-3.3-3.9-2.2-5l1.2-1.6c1.5-0.4,4.1-1.8,7.1,0.5l17.7,16.2c1.1,1,1.2,2.8,0.2,3.9	l-1.4,1.6C175.8,119.6,173.7,119.8,172.6,118.8z" class="st8"/><path d="M158.2,132.7c-12.4,7.1-25.5-1.1-25.5-1.1l0,13.2h25.7L158.2,132.7z" class="st9"/><path d="M175.5,112.5l20.8,3.8c1.4,0.1,2.4,1.4,2.3,2.9v0c-0.1,1.5-1.4,2.6-2.8,2.5l-21.3-1.8c-1.4-0.1-2.4-1.4-2.3-2.9	v0C172.3,115.5,174.1,112.4,175.5,112.5z" class="st8"/><path d="M175.9,119.1h43.9c0.6,0,1.1,0.5,1.1,1.1v0c0,0.6-0.5,1.1-1.1,1.1h-43.9c-0.6,0-1.1-0.5-1.1-1.1v0	C174.8,119.6,175.3,119.1,175.9,119.1z" class="st10"/><path d="M187.2,119.1h32.6c0.6,0,1.1,0.5,1.1,1.1v0c0,0.6-0.5,1.1-1.1,1.1h-32.6V119.1z" class="st11"/><path d="M227.5,102.6l-6.3,17.1c-0.1,0.3-0.5,0.6-0.8,0.6l-32.1,0c-0.7,0-1.1-0.7-0.8-1.3l7.1-16.7	c0.2-0.4,0.6-0.7,1.1-0.7h31.1C227.3,101.5,227.7,102.1,227.5,102.6z" class="st12"/><g><polygon points="62.6 130.1 48.1 187.1 51.4 187.1 70.4 127" class="st11"/><polygon points="75.8 126.5 61.4 183.4 64.7 183.4 83.7 123.4" class="st13"/><polygon points="227.1 130.1 241.5 187.1 238.2 187.1 219.2 127" class="st11"/><polygon points="213.8 127.1 228.3 184.1 225 184.1 206 124" class="st13"/><polygon points="237 124.5 236.9 124.5 236.9 124.5 53.6 124.5 53.6 144 102.9 144 109.4 134 181.3 134 188.9 144 237 144" class="st14"/><rect width="183.4" height="3.6" x="53.6" y="121" class="st15"/></g><g class="st16"><g><path d="M179.2,81.5l4,0.5l-0.2,1.6l-6.5-0.8l0.1-0.9l4.7-5.8l-3.9-0.5l0.2-1.6l6.5,0.7l-0.1,0.9L179.2,81.5z" class="st17"/></g></g><g class="st18"><g><path d="M191.5,70l5.5-1.2l0.5,2.2l-9,2l-0.3-1.3l3.5-9.9l-5.4,1.2l-0.5-2.2l8.9-2l0.3,1.2L191.5,70z" class="st17"/></g></g><g class="st19"><g><path d="M167.8,96.3h2.4v0.9h-4v-0.6l2.4-3.5h-2.4v-0.9h3.9v0.6L167.8,96.3z" class="st17"/></g></g><g class="st20"><g><path d="M168.2,84.2l2.8-0.4l0.2,1.1l-4.6,0.7l-0.1-0.6l2.1-4.8l-2.8,0.4l-0.2-1.1l4.5-0.7l0.1,0.6L168.2,84.2z" class="st17"/></g></g><g><path d="M152.8,92c-0.2,0.3-0.5,1.3-0.5,1.3c-0.4-0.2-2.9-1.8-3.2-1.9c-5.1-2.2-10.2-0.7-13.5,3.8 c-4.3,5.7-4.8,12.8,1,17.7c0.3,0.3,0.6,0.5,0.9,0.7l0,0c0,0-0.3,0.3-0.5,0.7c-0.5,0.9-0.8,2.5,2.1,3.2c4.2,1.1,4.9-1.3,4.9-1.3 c2.9,0.6,14.3,1.4,16.8-2.6c2-3.2,1.2-7.8-2.9-13.9c-0.1-0.2-0.6-1-0.8-1.4c0.2-0.4,0.9-1.8,0-4.6C156.3,91.1,153.9,90.6,152.8,92z" class="st21"/><linearGradient id="SVGID_1_" x1="2378.894" x2="2379.186" y1="-4354.146" y2="-4347.218" gradientTransform="matrix(0.5973 -0.802 0.802 0.5973 2219.7046 4613.8721)" gradientUnits="userSpaceOnUse"><stop offset="0" style="stop-color:#efb89a;stop-opacity:0"/><stop offset="1" style="stop-color:#e08f79;stop-opacity:.8"/></linearGradient><path d="M149.7,105.8l6.9,1.9c0.6,0.2,1,0.7,1.2,1.3l0.4,1.4c0.2,0.7-0.3,1.5-1,1.6l-1.5,0.3 c-0.7,0.1-1.4-0.1-1.8-0.7L149.7,105.8z" class="st22"/></g><path d="M134.4,81.2c3,9.5-1.9,9.3-0.9,14.9c-2-0.3-4.1-3.4-4.1-3.4c-1.9,11.2,0.6,16.3,2.8,18.9	c2.4,2.8,10.1,4.8,10.1,4.8s1-0.1,1.2-0.3c0.3-0.2,2.7-0.2,2.7-0.2s-2.6-1.2-3.3-1.7c-2.6-1.9-3.1-4.1-2.2-7.3	c2.1,0.4,4.9-0.6,6.5-2.9c1.7-2.6,1.2-4.7,0-6.5c2.5-1.8,4.5-2.1,7-0.6c1,0.6,2.3,1.4,3.5,2.5c0,0-1.2-3.2-2.7-5	c-0.9-1.1-3.7-3.7-7-3.7C147.4,84.7,134.4,81.2,134.4,81.2z" class="st9"/><path d="M227.9,102.6l-6.4,17.3c-0.1,0.3-0.5,0.4-0.8,0.4l-32.4,0c-0.5,0-0.8-0.5-0.6-0.9l7.3-17.2	c0.2-0.4,0.6-0.7,1.1-0.7h31.1C227.8,101.4,228.2,102,227.9,102.6z" class="st23"/><g><linearGradient id="SVGID_2_" x1="152.896" x2="180.637" y1="-427.421" y2="-421.988" gradientTransform="matrix(0.9955 -9.451974e-02 9.451974e-02 0.9955 21.9924 557.7208)" gradientUnits="userSpaceOnUse"><stop offset="0" style="stop-color:#5f697a"/><stop offset="1" style="stop-color:#a6abb3"/></linearGradient><path d="M129.1,113.6l21,2.5c1.4,0.2,2,0.9,2,2.3c0,1.5-1.1,2.5-2.5,2.5l-20.8,0c-2.2,0-3.6-1.9-3.3-3.5 C125.5,115.9,126.9,113.6,129.1,113.6z" class="st24"/><path d="M150.6,116.8L150.6,116.8c0.4-0.5,0.9-0.8,1.5-0.9l5.7-0.9c0.8-0.1,1.5,0.1,2.1,0.7c1,1,2.9,2.9,4,4.1 c0.4,0.4,0.1,1.1-0.4,1.1c-2.4,0-7.2,0-11.1,0C150.4,120.9,149.3,118.4,150.6,116.8z" class="st21"/></g><g><ellipse cx="208.3" cy="111.6" class="st25" rx="4.2" ry="2.8" transform="matrix(0.7742 -0.633 0.633 0.7742 -23.6167 157.0798)"/><g><path d="M205.9,112.6c0,0,0.1-0.1,0.1-0.1c0.6-0.6,1.1-1.3,1.7-1.9c0,0,0.1-0.1,0.1-0.1c0.6-0.3,1.2-0.6,1.9-0.9 c-0.6,0.8-1.2,1.5-1.8,2.3c0.7,0.3,1.3,0.6,2,0.9c-0.5,0.2-1,0.3-1.5,0.4c-0.2,0.1-0.5,0.2-0.6,0.2c-0.2,0-0.3-0.1-0.5-0.2 C206.8,113,206.4,112.8,205.9,112.6C206,112.6,205.9,112.6,205.9,112.6z" class="st26"/></g></g><path d="M139.5,178.3h-2.8c-0.9,0-1.6-0.7-1.7-1.6l-3.7-36.4c-0.4-3.3,2.1-6.2,5.2-6.2h0c2.9,0,5.2,2.5,5.2,5.6	l-0.7,36.9C141.1,177.5,140.4,178.3,139.5,178.3z" class="st27"/><path d="M174.9,175.1l-4.9,2.3l-19.5-33.1c-1.3-2.5-0.7-5.9,1.6-7.2l0.7-0.4c2.8-1.7,6.7,0.1,7.9,3.3L174.9,175.1z" class="st27"/><path d="M141.9,176.8c-0.5,2.2,0.1,4.8-0.4,7.1c-0.2,0.3-0.6,0.3-0.9,0.3c-6.3,0-12.6,0-18.9,0c-0.9,0-1-0.1-0.7-1	c0.3-0.8,0.6-1.4,1.4-1.8c3-1.5,5.9-3.2,8.8-4.7c0.5-0.3,0.9-0.7,1.2-1.1c0.4-0.6,0.9-1.2,1.3-1.8c1-0.1,1.5,0.5,1.8,1.2	c0.3,0.5,0.6,0.8,1.2,0.8c1.7,0.1,2.4,0,4.1,0.1C141.4,176,142.1,176,141.9,176.8z" class="st28"/><path d="M168.6,177.6c1.2,1.9,1.5,4.6,2.7,6.5c0.3,0.2,0.6,0.1,0.9,0c5.9-2.1,11.9-4.2,17.8-6.4	c0.8-0.3,0.9-0.4,0.4-1.1c-0.5-0.6-1-1.1-2-1.2c-3.3-0.4-6.6-1-9.9-1.5c-0.6-0.1-1-0.3-1.5-0.7c-0.6-0.4-1.2-0.8-1.8-1.2	c-0.9,0.2-1.2,1-1.3,1.8c-0.1,0.6-0.3,0.9-0.8,1.2c-1.6,0.7-2.2,0.8-3.8,1.5C168.8,176.6,168.1,176.8,168.6,177.6z" class="st28"/><g><g><path d="M70.4,77.5c-2.9,1.6-3.4,8.5-1.3,12.9c1.9,3.9,6.4,7,10.4,4.4c4.7-3,4.6-8,1.4-11.7 C78.2,79.9,73.2,75.9,70.4,77.5z" class="st29"/><path d="M79.2,94.4c-0.3-3.2,0.8-7.3,2.8-9.7l0.2,0.2c-1.9,2.3-3,6.3-2.7,9.5L79.2,94.4z" class="st28"/><g><path d="M77.9,91.9c-0.6-0.5-1.3-0.9-1.9-1.2c-2.3-1.1-5.1-1.9-7.7-2.2l0-0.3c2.6,0.3,5.4,1.1,7.8,2.2 c0.7,0.3,1.4,0.7,2,1.3L77.9,91.9z" class="st28"/><path d="M75.2,86.8c-0.4-1.9,1-5.3,2.6-6.8l0.2,0.2c-1.5,1.4-2.8,4.8-2.5,6.5L75.2,86.8z" class="st28"/><path d="M73.8,84.3c-1.8-1-3.7-1.4-6-1.4c0,0,0,0,0,0l0-0.3c0,0,0,0,0,0c2.3,0,4.3,0.5,6.1,1.4L73.8,84.3z" class="st28"/><path d="M83.4,102.9c-2.8-5.4-9.6-18.7-13.5-25.2l0.5-0.3c3.9,6.5,10.8,19.8,13.5,25.2L83.4,102.9z" class="st28"/></g></g><g><path d="M90.2,58.5c-4.8-0.1-10.6,7.7-11.1,14.7c-0.5,6.3,2.9,13,9.7,13.1c8,0.1,11.7-7.2,10.5-14.1 C98.2,66.2,94.7,58.6,90.2,58.5z" class="st28"/><g><g><path d="M89.2,81.8c2.2-3.7,6-6.8,10.3-7.9" class="st30"/><path d="M89.6,71.4c1.4-2.2,4.8-4.5,7.5-6.2" class="st30"/><path d="M89.8,67.9c-1.3-2.8-3.6-4.6-5.7-6.1" class="st30"/><path d="M80.3,68.2c3.4,2.3,6.8,4.7,9.2,8" class="st30"/><path d="M89,86c-2.7-3.3-6-6.5-9.6-8.4" class="st30"/><rect width="44.3" height=".6" x="67.1" y="80.3" class="st28" transform="matrix(4.297103e-02 -0.9991 0.9991 4.297103e-02 4.843 166.3249)"/></g><g><path d="M89.3,81.9l-0.3-0.2c2.3-3.9,6.3-6.9,10.4-8l0.1,0.3C95.5,75.1,91.6,78.1,89.3,81.9z" class="st15"/><path d="M89.8,71.5l-0.3-0.2c1.1-1.8,3.7-3.8,7.6-6.2l0.2,0.3C93.4,67.7,90.8,69.8,89.8,71.5z" class="st15"/><path d="M89.6,68c-1.3-2.7-3.6-4.6-5.6-6l0.2-0.2c2.1,1.5,4.4,3.4,5.7,6.1L89.6,68z" class="st15"/><path d="M89.3,76.3c-2.3-3.3-5.8-5.7-9.1-7.9l-0.1,0l0.2-0.2l0.1,0c3.3,2.3,6.8,4.7,9.1,8L89.3,76.3z" class="st15"/><path d="M88.9,86.1c-2.1-2.6-5.5-6.3-9.6-8.4l0.1-0.3c4.1,2.2,7.5,5.8,9.7,8.5L88.9,86.1z" class="st15"/><rect width="27.8" height=".6" x="75.7" y="72.1" class="st15" transform="matrix(4.199615e-02 -0.9991 0.9991 4.199615e-02 13.4948 158.8558)"/></g></g></g><g><path d="M110.1,70.9c-3.2-1.7-10.6,3.7-14.1,10c-3.1,5.7-3.8,12.9,0.8,15.2c5.4,2.7,11.2-2.8,13.4-9.6 C112.2,80.6,113.2,72.4,110.1,70.9z" class="st31"/><g><path d="M102.1,82.3C102,82.3,102,82.3,102.1,82.3c-0.2-0.1-0.2-0.2-0.1-0.2c1.7-2.3,6.4-2.6,9.8-2.7c0,0,0,0,0,0 c0.1,0,0.1,0.1,0.2,0.1c0,0.1-0.1,0.2-0.1,0.2c-3.3,0.1-8,0.5-9.6,2.6C102.2,82.3,102.1,82.3,102.1,82.3z" class="st28"/><path d="M106.7,74.1c0,0-0.1,0-0.1-0.1c0-0.1,0-0.2,0-0.2c1.1-0.7,3.2-1,4.8-1.1c0.1,0,0.2,0.1,0.2,0.1 c0,0.1-0.1,0.2-0.1,0.2C110.2,73.1,107.9,73.4,106.7,74.1C106.8,74.1,106.8,74.1,106.7,74.1z" class="st28"/><path d="M105,77C105,77,105,77,105,77c-0.1,0-0.2-0.1-0.2-0.2c0.1-1.5-0.4-2.9-1.3-4.1c-0.1-0.1,0-0.2,0-0.2 c0.1-0.1,0.2,0,0.2,0c1,1.2,1.5,2.7,1.4,4.3C105.1,77,105.1,77,105,77z" class="st28"/><path d="M98.1,90.3c-0.1,0-0.1,0-0.1-0.1c0-0.1,0-0.2,0.1-0.2c4-2.3,7.8-3.2,11.7-2.6c0.1,0,0.1,0.1,0.1,0.2 c0,0.1-0.1,0.1-0.2,0.1C105.9,87.2,102.1,88,98.1,90.3C98.1,90.3,98.1,90.3,98.1,90.3z" class="st28"/><path d="M97,92.8c-0.1,0-0.1-0.1-0.2-0.1c-0.1-2.2-0.9-4.3-2.7-6.8c0-0.1,0-0.2,0-0.2c0.1,0,0.2,0,0.2,0 c1.8,2.5,2.6,4.7,2.8,6.9C97.1,92.7,97.1,92.8,97,92.8C97,92.8,97,92.8,97,92.8z" class="st28"/><path d="M100.8,84.7c-0.1,0-0.1-0.1-0.2-0.1c-0.2-2.7-1.4-4.8-2.5-6.6c0-0.1,0-0.2,0-0.2c0.1,0,0.2,0,0.2,0 c1.1,1.7,2.4,4.1,2.5,6.8C100.9,84.6,100.9,84.7,100.8,84.7C100.8,84.7,100.8,84.7,100.8,84.7z" class="st28"/><path d="M93,103.1c0,0-0.1,0-0.1,0c-0.2-0.1-0.2-0.2-0.2-0.4c5-13.9,9.7-22.5,15.8-32c0.1-0.1,0.3-0.2,0.4-0.1 c0.1,0.1,0.2,0.3,0.1,0.4c-6,9.4-10.7,18.1-15.7,31.9C93.2,103,93.1,103.1,93,103.1z" class="st28"/></g></g><g><path d="M73.7,102.6c0,0.1,0,0.3,0,0.4c0,7.6,2.9,14.2,7.3,17.9h15.5c4.4-3.7,7.3-10.3,7.3-17.9c0-0.2,0-0.3,0-0.4 H73.7z" class="st32"/><path d="M81,120.9h15.5c4.4-3.7,7.3-10.3,7.3-17.9c0-0.2,0-0.3,0-0.4h-3.8c-0.2,5.3-2.1,10.3-9.5,11.6 C84.1,115.2,81.6,118.8,81,120.9C81,120.9,81,120.9,81,120.9z" class="st33"/><path d="M103.3,104H74.2c-0.3,0-0.6-0.3-0.6-0.6v-0.1c0-0.3,0.3-0.6,0.6-0.6h29.1c0.3,0,0.6,0.3,0.6,0.6v0.1 C103.9,103.7,103.7,104,103.3,104z" class="st32"/><path d="M103.7,104.6c0-0.2,0-0.4,0-0.7h-30c0,0.2,0,0.4,0,0.7H103.7z" class="st34"/></g></g><path d="M149.2,112.4c-0.4,0.5-0.8,0.8-1.2,0.9l-0.1,0.1c0,0,0.1,0.1,0.1,0.1c0.3,0.3,1-0.1,1.6-0.8	c0.5-0.7,0.7-1.4,0.3-1.7c0,0-0.1,0-0.1-0.1l0,0.1C149.8,111.3,149.6,111.8,149.2,112.4z" class="st35"/><path d="M155.6,103.3c-0.3,0.5-0.7,0.9-1.1,1l0,0.1c0,0,0.1,0.1,0.1,0.1c0.4,0.2,1-0.2,1.5-0.9	c0.4-0.7,0.5-1.5,0.1-1.7c0,0-0.1,0-0.1,0l0,0.1C156.1,102.3,155.9,102.8,155.6,103.3z" class="st35"/></svg>