<svg xmlns="http://www.w3.org/2000/svg" xmlns:xlink="http://www.w3.org/1999/xlink" id="Layer_1" width="200" height="154" x="0" style="enable-background:new 0 0 200 154" y="0" version="1.1" viewBox="0 0 200 154" xml:space="preserve"><style type="text/css">.st0{opacity:.1;fill:#1397b9;stroke:#1397b9;stroke-miterlimit:10}.st1{opacity:8.000000e-02}.st2{enable-background:new}.st3{fill:#687283}.st4{fill:#7d8695}.st5{fill:#5d687a}.st6{fill:#9ea5af}.st7{fill:#88909e}.st8{opacity:.39}.st9{fill:#9bb9b2}.st10{fill:#a9afb8}</style><path d="M187.9,79c-25.7-47.2-8.2-69.7-28.4-78c-20.5-8.4-33,39.4-59.4,45.8c-18.4,4.5-37.2-16.4-63.8-9	c-24.7,6.9-41,39.3-35,69.6C12.7,165.5,65.6,131,99.4,129c38-2.3,63.3,42,91,14.3C200.8,132.8,206.4,112.9,187.9,79z" class="st0"/><polygon points="67.6 144 131.4 146.7 147.3 133.5 83.9 130.2" class="st1"/><g><g><g class="st2"><g><polygon points="71.1 97.7 85.7 88.2 143.1 90.6 128.4 100.1" class="st3"/></g><g><polygon points="128.4 100.1 143.1 90.6 143.3 125.2 128.9 137.2" class="st3"/></g><g><polygon points="71.6 134.9 71.1 97.7 128.4 100.1 128.9 137.2" class="st4"/></g></g></g></g><polygon points="71.1 97.7 85.7 88.2 85.7 98.5" class="st5"/><polygon points="119.5 114.5 62 111.6 71.2 97.7 128.4 100" class="st6"/><polygon points="155.2 99.2 140.8 110.8 128.4 100.1 143.1 90.6" class="st7"/><g class="st8"><g><path d="M94.4,38.1c0.6-1,1.8-2,3.6-3.2c1.8-1.1,5-2.9,9.6-5.4c0.2-0.3,0.3-0.8,0.3-1.4c-0.1-4.1-1.1-7.5-3.1-10.2 c-1.9-2.6-5.1-3.9-9.4-3.9c-1.1,0-2,0.1-2.6,0.3c-0.6,0.2-1.3,0.5-2.1,1l-1.9-7.8c0.7-0.4,2.1-0.7,4.3-1.1C95.3,6.2,98,6,101.1,6 c4.7,0,8.6,0.7,11.7,2.3c3.1,1.5,5.4,3.5,6.8,6c1.5,2.5,2.2,5.2,2.2,8c0,2.5-0.5,4.5-1.5,6.2c-1,1.7-2.3,3-3.7,3.9 c-1.4,1-3.3,2-5.6,3.2c-1.7,0.8-3,1.5-3.9,2.1c-0.9,0.6-1.6,1.2-2.2,1.9c-0.4,0.6-0.6,1.3-0.6,2.3c0,1.1,0.1,2.5,0.3,4.3 c0.2,1.8,0.4,3.4,0.6,4.8l-7.8,1.4c-0.5-0.5-1-1.4-1.6-2.5c-0.6-1.2-1.2-2.4-1.6-3.9c-0.5-1.4-0.7-2.7-0.8-4 C93.4,40.4,93.7,39.1,94.4,38.1z M107.6,58.4c1.1,0.6,1.9,1.4,2.5,2.4c0.6,1,0.9,2.1,0.9,3.2c0,2-0.7,3.5-2,4.6 c-1.4,1.1-3.2,1.7-5.4,1.7c-1.1,0.1-2.2-0.1-3.3-0.6c-1.1-0.5-1.9-1.3-2.6-2.3c-0.7-1-1-2.1-1-3.4c0-1.2,0.3-2.3,0.9-3.3 c0.6-1,1.5-1.8,2.6-2.4c1.1-0.6,2.3-0.9,3.7-0.9C105.3,57.5,106.5,57.8,107.6,58.4z" class="st9"/></g></g><polygon points="56.4 101.7 71.2 97.7 85.7 88.2 72.4 93" class="st10"/></svg>