<svg xmlns="http://www.w3.org/2000/svg" xmlns:xlink="http://www.w3.org/1999/xlink" id="Layer_1" width="40" height="40" x="0" style="enable-background:new 0 0 40 40" y="0" version="1.1" viewBox="0 0 40 40" xml:space="preserve"><style type="text/css">.st0{opacity:.9}.st1,.st2{fill:none;stroke-linecap:round;stroke-linejoin:round}.st1{stroke:#1397b9}.st2{stroke-dasharray:.483,1.9321}.st2,.st3,.st4{stroke:#1397b9}.st3{fill:none;stroke-linecap:round;stroke-linejoin:round;stroke-dasharray:.4752,1.9007}.st4{stroke-dasharray:.4875,1.9501}.st4,.st5,.st6{fill:none;stroke-linecap:round;stroke-linejoin:round}.st5{stroke:#1397b9;stroke-dasharray:.5077,2.0309}.st6{stroke:#33c5a0;stroke-miterlimit:10}</style><g class="st0"><g><g><path d="M38.3,23.6c0,0.1,0.1,0.1,0.1,0.2c-0.1,0-0.1,0.1-0.2,0.1" class="st1"/><path d="M36.5,24.9c-5.2,2.5-10.3,5.1-15.5,7.6c-0.4,0.2-0.8,0.4-1.2,0.3c-4.7-0.6-9.3-1.3-14.2-2" class="st2"/><path d="M4.7,30.7c-0.1,0-0.2,0-0.2,0c0.1,0,0.1-0.1,0.2-0.1" class="st1"/><path d="M6.3,29.5c5.2-3.2,10.2-6.4,15.3-9.6" class="st3"/><path d="M22.4,19.4c0.1,0,0.1-0.1,0.2-0.1c0-0.1-0.1-0.1-0.1-0.2" class="st1"/><path d="M21.5,17.4c-3.3-5.2-6.5-10.4-9.9-15.7" class="st4"/><path d="M11.1,0.9c0-0.1-0.1-0.1-0.1-0.2c0.1,0,0.2,0.1,0.2,0.1" class="st1"/><path d="M13.1,1.5c3.2,1.1,6.3,2.1,9.4,3.2c1.7,0.6,3.6,0.8,4.9,1.8c1.3,1,2,2.9,2.9,4.4c2.5,4,5,7.9,7.5,11.9" class="st5"/></g></g></g><g><path d="M37.6,13.2c-0.1,0.4-0.2,0.7-0.4,0.9c-2.7,5.5-5.4,11-8.2,16.5c-0.2,0.4-0.4,0.8-0.7,1 c-4.4,2.5-8.8,5-13.5,7.6c2.6-6.8,5-13.3,7.5-20c-6.8-2.5-13.6-5.1-20.6-7.7c4-1.4,7.8-2.6,11.5-3.9c1.7-0.6,3.4-1.6,5-1.5 c1.7,0,3.3,1.1,5,1.7c4.4,1.6,8.9,3.3,13.3,4.9C36.9,12.9,37.3,13,37.6,13.2z" class="st6"/></g></svg>